# Blender 4.1.1
# www.blender.org
o Curve.002
v -0.105430 0.514039 -0.012008
v 1.963616 0.481396 -0.012008
v 1.963616 -0.128130 -0.012008
v -0.107106 -0.732028 -0.012008
v -0.712231 -0.128130 -0.012008
v -1.315121 0.481396 -0.012008
v -1.315121 3.534090 -0.012007
v 0.133715 3.534090 -0.012008
v 1.118230 3.534090 -0.012008
v 1.118230 0.754923 -0.042050
v -1.555383 0.241638 -0.151385
v -0.957521 0.241638 -0.012008
v -1.434134 -0.118562 -0.012008
v -2.031995 -0.118562 -0.012007
v -2.031995 0.241638 -0.012007
v 1.357374 0.514039 -0.012008
v 1.357374 3.534090 -0.012008
v 2.565948 3.534090 -0.012008
v 2.565948 0.481396 -0.012008
v 1.358492 -0.128130 -0.012008
v 1.358492 -0.732028 -0.012008
v -0.107106 -0.128130 -0.012008
v -0.712231 0.481396 -0.012008
v -0.105989 3.534090 -0.012008
v 0.133715 0.754923 -0.012008
v -2.629296 3.534090 -0.012007
v -1.555383 3.534090 -0.012007
v -0.957521 -0.371265 -0.012008
v -0.350162 -0.371265 -0.012008
v -0.350162 -0.732028 -0.012008
v -1.434134 -0.732028 -0.012008
v -1.501052 0.059428 -0.012008
v -1.154791 -0.520584 0.083277
v -1.220056 0.043228 -0.012008
v -0.820585 -0.527829 -0.162953
v -2.031995 0.507285 -0.012007
v -2.629296 0.507285 -0.012007
v -0.710275 0.497717 -0.012008
v -0.710554 3.534090 -0.012007
v -1.315121 2.007743 -0.012007
v -0.105709 2.024065 -0.012008
v -0.710415 2.015904 -0.303050
v -2.086558 3.534090 -0.012007
v -1.707129 2.570395 -0.012007
v -1.749452 2.301621 -0.131703
v -1.774891 2.140063 -0.012007
v -1.840636 1.722536 -0.012007
v -1.882624 1.455886 -0.173842
v -1.951472 1.018653 -0.096672
v -2.003804 0.686313 -0.012007
v -2.629296 3.047601 -0.012007
v -2.629296 2.475696 -0.012007
v -2.629296 1.102160 -0.012007
v -1.555383 2.115374 -0.072065
v -1.555383 1.132591 -0.113669
v -1.555383 0.527239 -0.139295
v -2.196332 1.048819 -0.012007
v -2.264900 1.274788 -0.012007
v -2.155456 2.251477 0.050192
v -2.110815 3.082518 -0.090512
v -1.775577 0.459993 -0.206981
v -1.735641 0.953193 -0.072802
v -1.726232 1.485932 -0.052780
v -1.714835 2.133308 -0.028439
v -0.105635 1.620999 -0.012008
v -0.710314 0.920897 -0.233871
v -0.710374 1.564328 -0.216481
v -1.037951 0.488875 -0.012008
v -0.854033 2.013966 -0.233927
v -1.045753 2.011378 -0.141653
v -1.155611 2.009895 -0.088779
v -1.161929 2.009810 -0.085738
v -1.178944 2.009581 -0.077549
v -0.322146 0.508191 -0.012008
v -0.336103 0.507815 -0.012008
v -0.698703 0.498030 -0.012008
v -0.710466 2.570914 -0.196652
v -0.710486 2.791775 -0.154312
v -0.710526 3.220130 -0.288928
v -0.102070 0.496213 -0.012008
v -0.321828 0.493528 -0.012008
v -0.706175 0.488834 -0.012008
v -0.357915 2.020661 -0.133393
v -0.381422 2.020344 -0.144707
v -0.542792 2.018166 -0.222374
v -0.219497 1.136590 -0.066852
v -0.345404 0.968814 -0.131379
v -0.280726 1.470768 -0.096292
v -0.484251 1.367291 -0.147554
v -0.710391 1.753886 -0.252820
v -0.656106 1.860151 -0.265710
v -0.425049 1.315703 -0.129508
v -0.452876 1.277247 -0.126062
v -0.537434 0.712928 -0.030465
v -0.348710 1.841808 -0.275724
v -0.394006 3.180409 0.019834
v -0.205261 2.423363 -0.035420
v -0.505032 2.771791 -0.158143
v -0.370212 2.415820 -0.115136
v -0.389590 2.070009 -0.145594
v -0.604670 2.405086 -0.228442
v -0.445919 2.171952 -0.274919
v -0.376644 2.622512 -0.105586
v -1.100673 0.932643 -0.097404
v -1.165496 1.974221 -0.236812
v -1.027562 1.362064 -0.288395
v -0.987767 1.170223 -0.142365
v -0.854337 1.450990 -0.195498
v -1.138369 1.305149 -0.087161
v -1.237668 1.254145 -0.049285
v -1.056364 1.500908 -0.120061
v -0.946821 1.403513 -0.160223
v -1.159157 1.996445 -0.086639
v -0.855743 2.328471 -0.172821
v -0.942743 2.609725 -0.076819
v -1.019945 2.622625 -0.036990
v -1.144351 2.893218 -0.017923
v -1.182946 2.977166 -0.012007
v -0.953697 3.095068 -0.041214
v -1.267657 2.253851 -0.013652
v -1.104087 2.155083 -0.218501
v -1.032647 2.380806 -0.098531
v -1.231810 2.439726 -0.014893
v -1.204697 2.084838 -0.050663
v 1.118230 3.293018 -0.012008
v 1.118230 3.083220 -0.012008
v 1.118230 2.417274 -0.012008
v 1.118230 2.164460 -0.012008
v 1.118230 1.804638 -0.012008
v 1.118230 1.779901 -0.012008
v 1.118230 1.280685 -0.012008
v 0.651851 0.754923 -0.012008
v 0.604283 3.534090 -0.012008
v 0.133715 1.011575 -0.012008
v 0.133715 1.679011 -0.012008
v 0.133715 2.314227 -0.012008
v 0.133715 2.842721 -0.012008
v 0.133715 3.307484 -0.012008
v 0.641796 3.300019 -0.012008
v 0.597946 2.956122 -0.012008
v 0.807931 2.797192 -0.123817
v 0.401634 2.734032 0.065304
v 0.484063 2.928312 -0.012008
v 0.520676 3.014606 -0.113085
v 0.712476 3.298980 -0.159692
v 1.004566 2.664265 -0.012008
v 0.367660 2.338713 -0.012008
v 0.529225 2.496214 -0.102510
v 0.625687 2.540599 -0.019224
v 0.672564 2.370627 -0.012008
v 0.827072 2.386799 -0.012008
v 1.007591 1.156027 -0.012008
v 0.572009 0.897317 -0.119051
v 0.735217 1.481016 -0.318623
v 0.885579 1.598366 0.008657
v 0.838527 1.768949 -0.272132
v 0.758380 2.059510 -0.285444
v 0.312915 1.701878 -0.012008
v 0.394053 1.214755 -0.012008
v 0.739419 0.853674 -0.055316
v 0.948756 1.369328 -0.012008
v 0.842732 3.015932 -0.166211
v 0.391564 2.616813 -0.012008
v 0.375113 2.425302 -0.012008
v 0.729932 3.261048 -0.012008
v 0.712352 3.446155 0.048132
v 0.921109 3.423039 -0.139511
v -0.712231 0.172438 -0.012008
v -0.712231 0.307754 -0.012008
v -0.494432 0.064248 0.051580
v -0.406900 0.141563 -0.094154
v -0.349092 0.333083 0.036650
v 1.963616 0.236730 -0.012008
v 1.963616 0.042142 -0.012008
v 0.400678 0.049685 0.054898
v 0.858644 0.092230 0.045020
v 0.798529 0.188711 -0.012008
v 0.006061 0.341529 -0.133854
v 0.806181 0.360558 -0.007786
v 1.480863 0.174950 -0.078036
v 1.480863 0.174950 0.099043
v 1.473969 0.422472 0.065605
v 0.301662 0.454069 -0.012008
v 1.358492 -0.226999 -0.012008
v 0.964909 -0.380085 -0.206833
v 0.644673 -0.217653 -0.137181
v 0.556707 -0.464118 -0.083580
v 0.096461 -0.558865 -0.240512
v 1.007535 -0.665089 -0.012008
v 1.271887 -0.260685 -0.012008
v 1.293553 -0.227610 -0.012008
v 1.105213 -0.515662 -0.012008
v 1.222883 -0.616183 -0.012008
v 2.565948 3.069967 -0.012008
v 2.565948 0.534681 -0.012008
v 2.101102 0.493951 -0.012008
v 2.562259 0.481495 -0.012008
v 1.357374 0.992509 -0.012008
v 1.357374 1.547805 -0.012008
v 1.357374 2.357882 -0.012008
v 1.859617 3.534090 -0.012008
v 2.225459 3.246355 0.072899
v 2.414912 2.749856 -0.012008
v 2.458423 2.111709 -0.012008
v 2.275794 1.428421 -0.122322
v 2.101335 2.005107 -0.033034
v 1.641992 2.222921 0.131841
v 1.414678 2.604321 -0.012008
v 1.585237 3.337815 -0.107591
v 1.993552 3.048458 -0.012008
v 1.681940 2.478182 -0.012008
v 1.784972 2.822043 0.085643
v 2.038800 2.610451 -0.103737
v 2.071455 2.294344 -0.012008
v 1.970958 2.341775 -0.112680
v 1.888487 2.554738 -0.012008
v 1.532969 2.548491 -0.120920
v 1.872684 1.436746 -0.184070
v 2.068670 0.920648 0.077441
v 1.675817 1.267031 0.029549
v 2.089674 0.644308 -0.180181
v 1.761624 0.757326 -0.203303
v 1.967738 0.486956 0.186565
v 1.967738 -0.122569 0.186565
v -0.708109 -0.122569 0.186565
v -1.310999 0.486956 0.186565
v -1.310999 3.539650 0.186565
v 1.122352 3.539650 0.186565
v 1.122352 0.760483 0.186565
v -0.953400 0.247198 0.186565
v -1.430012 -0.113002 0.186565
v 1.361496 0.519600 0.186565
v 1.361496 3.539650 0.186565
v 2.570069 3.539650 0.186565
v 1.362614 -0.122569 0.186565
v -0.102984 -0.122569 0.186565
v -0.708109 0.486956 0.186565
v -0.101867 3.539650 0.186565
v 0.137836 0.760483 0.186565
v -0.953400 -0.365705 0.186565
v -0.346040 -0.726467 0.186565
v -1.430012 -0.726467 0.186565
v -0.706432 3.539650 0.186565
v -0.101587 2.029625 0.186565
v -2.625175 3.053162 0.186565
v -2.625175 2.481256 0.186565
v -1.551261 2.120934 0.186565
v -1.551261 0.532799 0.186565
v -0.101513 1.626559 0.186565
v -0.706269 1.759447 0.186565
v 1.122352 2.422834 0.186565
v 1.122352 1.785461 0.186565
v 1.122352 1.286245 0.186565
v 0.137836 2.848281 0.186565
v 0.137836 3.313045 0.186565
v -0.708109 0.177998 0.186565
v -0.708109 0.313315 0.186565
v 1.967738 0.242290 0.186565
v 1.484984 0.180511 0.186565
v 1.362614 -0.221439 0.186565
v 2.570069 0.540241 0.186565
v 1.361496 0.998070 0.186565
v 1.361496 2.363443 0.186565
v -0.105430 0.514039 0.385138
v 1.963616 0.481396 0.385138
v 1.963616 -0.128130 0.385138
v -0.107106 -0.732028 0.385138
v -0.712231 -0.128130 0.385138
v -1.315121 0.481396 0.385138
v -1.315121 3.534090 0.385138
v 0.133715 3.534090 0.385138
v 1.118230 3.534090 0.385138
v 1.118230 0.754923 0.415180
v -1.555383 0.241638 0.524515
v -0.957521 0.241638 0.385138
v -1.434134 -0.118562 0.385138
v -2.031995 -0.118562 0.385138
v -2.031995 0.241638 0.385138
v 1.357374 0.514039 0.385138
v 1.357374 3.534090 0.385138
v 2.565948 3.534090 0.385138
v 2.565948 0.481396 0.385139
v 1.358492 -0.128130 0.385138
v 1.358492 -0.732028 0.385138
v -0.107106 -0.128130 0.385138
v -0.712231 0.481396 0.385138
v -0.105989 3.534090 0.385138
v 0.133715 0.754923 0.385138
v -2.629296 3.534090 0.385137
v -1.555383 3.534090 0.385138
v -0.957521 -0.371265 0.385138
v -0.350162 -0.371265 0.385138
v -0.350162 -0.732028 0.385138
v -1.434134 -0.732028 0.385138
v -1.501052 0.059428 0.385138
v -1.154791 -0.520584 0.289853
v -1.220056 0.043228 0.385138
v -0.820585 -0.527829 0.536083
v -2.031995 0.507285 0.385138
v -2.629296 0.507285 0.385138
v -0.710275 0.497717 0.385138
v -0.710554 3.534090 0.385138
v -1.315121 2.007743 0.385138
v -0.105709 2.024065 0.385138
v -0.710415 2.015904 0.676180
v -2.086558 3.534090 0.385138
v -1.707129 2.570395 0.385138
v -1.749452 2.301621 0.504834
v -1.774891 2.140063 0.385138
v -1.840636 1.722536 0.385138
v -1.882624 1.455886 0.546973
v -1.951472 1.018653 0.469802
v -2.003804 0.686313 0.385138
v -2.629296 3.047601 0.385137
v -2.629296 2.475696 0.385138
v -2.629296 1.102160 0.385138
v -1.555383 2.115374 0.445195
v -1.555383 1.132591 0.486799
v -1.555383 0.527239 0.512425
v -2.196332 1.048819 0.385138
v -2.264900 1.274788 0.385138
v -2.155456 2.251477 0.322938
v -2.110815 3.082518 0.463642
v -1.775577 0.459993 0.580112
v -1.735641 0.953193 0.445933
v -1.726232 1.485932 0.425910
v -1.714835 2.133308 0.401569
v -0.105635 1.620999 0.385138
v -0.710314 0.920897 0.607001
v -0.710374 1.564328 0.589611
v -1.037951 0.488875 0.385138
v -0.854033 2.013966 0.607057
v -1.045753 2.011378 0.514784
v -1.155611 2.009895 0.461909
v -1.161929 2.009810 0.458868
v -1.178944 2.009581 0.450679
v -0.322146 0.508191 0.385138
v -0.336103 0.507815 0.385138
v -0.698703 0.498030 0.385138
v -0.710466 2.570914 0.569782
v -0.710486 2.791775 0.527443
v -0.710526 3.220130 0.662058
v -0.102070 0.496213 0.385138
v -0.321828 0.493528 0.385138
v -0.706175 0.488834 0.385138
v -0.357915 2.020661 0.506523
v -0.381422 2.020344 0.517837
v -0.542792 2.018166 0.595504
v -0.219497 1.136590 0.439982
v -0.345404 0.968814 0.504509
v -0.280726 1.470768 0.469422
v -0.484251 1.367291 0.520685
v -0.656106 1.860151 0.638841
v -0.425049 1.315703 0.502639
v -0.452876 1.277247 0.499192
v -0.537434 0.712928 0.403595
v -0.348710 1.841808 0.648855
v -0.394006 3.180409 0.353296
v -0.205261 2.423363 0.408551
v -0.505032 2.771791 0.531274
v -0.370212 2.415820 0.488266
v -0.389590 2.070009 0.518725
v -0.604670 2.405086 0.601573
v -0.445919 2.171952 0.648050
v -0.376644 2.622512 0.478716
v -0.710391 1.753886 0.625950
v -1.100673 0.932643 0.470534
v -1.165496 1.974221 0.609943
v -1.027562 1.362064 0.661525
v -0.987767 1.170223 0.515495
v -0.854337 1.450990 0.568629
v -1.138369 1.305149 0.460291
v -1.237668 1.254145 0.422415
v -1.056364 1.500908 0.493191
v -0.946821 1.403513 0.533353
v -1.159157 1.996445 0.459770
v -0.855743 2.328471 0.545952
v -0.942743 2.609725 0.449949
v -1.019945 2.622625 0.410120
v -1.144351 2.893218 0.391053
v -1.182946 2.977166 0.385138
v -0.953697 3.095068 0.414345
v -1.267657 2.253851 0.386782
v -1.104087 2.155083 0.591632
v -1.032647 2.380806 0.471662
v -1.231810 2.439726 0.388024
v -1.204697 2.084838 0.423794
v 1.118230 3.293018 0.385138
v 1.118230 3.083220 0.385138
v 1.118230 2.417274 0.385138
v 1.118230 2.164460 0.385138
v 1.118230 1.804638 0.385138
v 1.118230 1.779901 0.385138
v 1.118230 1.280685 0.385138
v 0.651851 0.754923 0.385138
v 0.604283 3.534090 0.385138
v 0.133715 1.011575 0.385138
v 0.133715 1.679011 0.385138
v 0.133715 2.314227 0.385138
v 0.133715 2.842721 0.385138
v 0.133715 3.307484 0.385138
v 0.641796 3.300019 0.385138
v 0.597946 2.956122 0.385138
v 0.807931 2.797192 0.496948
v 0.401634 2.734032 0.307827
v 0.484063 2.928312 0.385138
v 0.520676 3.014606 0.486216
v 0.712476 3.298980 0.532822
v 1.004566 2.664265 0.385138
v 0.367660 2.338713 0.385138
v 0.529225 2.496214 0.475641
v 0.625687 2.540599 0.392355
v 0.672564 2.370627 0.385138
v 0.827072 2.386799 0.385138
v 1.007591 1.156027 0.385138
v 0.572009 0.897317 0.492181
v 0.735217 1.481016 0.691753
v 0.885579 1.598366 0.364473
v 0.838527 1.768949 0.645262
v 0.758380 2.059510 0.658575
v 0.312915 1.701878 0.385138
v 0.394053 1.214755 0.385138
v 0.739419 0.853674 0.428446
v 0.948756 1.369328 0.385138
v 0.842732 3.015932 0.539341
v 0.391564 2.616813 0.385138
v 0.375113 2.425302 0.385138
v 0.729932 3.261048 0.385138
v 0.712352 3.446155 0.324998
v 0.921109 3.423039 0.512641
v -0.712231 0.172438 0.385138
v -0.712231 0.307754 0.385138
v -0.494432 0.064248 0.321550
v -0.406900 0.141563 0.467285
v -0.349092 0.333083 0.336481
v 1.963616 0.236730 0.385138
v 1.963616 0.042142 0.385138
v 0.400678 0.049685 0.318233
v 0.858644 0.092230 0.328111
v 0.798529 0.188711 0.385138
v 0.006061 0.341529 0.506984
v 0.806181 0.360558 0.687934
v 1.480863 0.174950 0.451167
v 1.480863 0.174950 0.274087
v 1.473969 0.422472 0.307526
v 0.301662 0.454069 0.385138
v 1.358492 -0.226999 0.385138
v 0.964909 -0.380085 0.579964
v 0.644673 -0.217653 0.510311
v 0.556707 -0.464118 0.456710
v 0.096461 -0.558865 0.613642
v 1.007535 -0.665089 0.385138
v 1.271887 -0.260685 0.385138
v 1.293553 -0.227610 0.385138
v 1.105213 -0.515662 0.385138
v 1.222883 -0.616183 0.385138
v 2.565948 3.069967 0.385138
v 2.565948 0.534681 0.385139
v 2.101102 0.493951 0.385138
v 2.562259 0.481495 0.385139
v 1.357374 0.992509 0.385138
v 1.357374 1.547805 0.385138
v 1.357374 2.357882 0.385138
v 1.859617 3.534090 0.385138
v 2.225459 3.246355 0.300231
v 2.414912 2.749856 0.385138
v 2.458423 2.111709 0.385138
v 2.275794 1.428421 0.495452
v 2.101335 2.005107 0.406164
v 1.641992 2.222921 0.241290
v 1.414678 2.604321 0.385138
v 1.585237 3.337815 0.480721
v 1.993552 3.048458 0.385138
v 1.681940 2.478182 0.385138
v 1.784972 2.822043 0.287487
v 2.038800 2.610451 0.476867
v 2.071455 2.294344 0.385138
v 1.970958 2.341775 0.485810
v 1.888487 2.554738 0.385138
v 1.532969 2.548491 0.494051
v 1.872684 1.436746 0.557200
v 2.068670 0.920648 0.295689
v 1.675817 1.267031 0.343581
v 2.089674 0.644308 0.553311
v 1.761624 0.757326 0.576433
v -0.101308 0.519600 0.186565
v -0.102984 -0.726467 0.186565
v 0.137836 3.539650 0.186565
v -1.551261 0.247198 0.186565
v -2.027873 -0.113002 0.186565
v -2.027873 0.247198 0.186565
v 2.570069 0.486956 0.186565
v 1.362614 -0.726467 0.186565
v -2.625175 3.539650 0.186565
v -1.551261 3.539650 0.186565
v -0.346040 -0.365705 0.186565
v -2.027873 0.512846 0.186565
v -2.625175 0.512846 0.186565
v -1.310999 2.013303 0.186565
v -0.706293 2.021464 0.186565
v -2.082437 3.539650 0.186565
v -2.625175 1.107720 0.186565
v -1.551261 1.138151 0.186565
v -0.706252 1.569888 0.186565
v 1.122352 3.298579 0.186565
v 1.122352 3.088780 0.186565
v 1.122352 2.170020 0.186565
v 1.122352 1.810199 0.186565
v 0.655972 0.760483 0.186565
v 0.608405 3.539650 0.186565
v 0.137836 1.017135 0.186565
v 0.137836 1.684572 0.186565
v 0.137836 2.319787 0.186565
v 1.967738 0.047703 0.186565
v 2.570069 3.075528 0.186565
v 1.361496 1.553365 0.186565
v 1.863739 3.539650 0.186565
vn 0.2366 -0.0653 -0.9694
vn -0.3140 -0.0901 -0.9451
vn -0.2420 -0.0000 -0.9703
vn 0.5431 -0.0000 -0.8397
vn 0.6466 0.2021 -0.7355
vn -0.0000 -0.0897 -0.9960
vn -0.6021 -0.3885 -0.6976
vn -0.0000 -0.0000 -1.0000
vn 0.2556 0.0535 -0.9653
vn -0.2807 -0.0000 -0.9598
vn 0.1880 -0.5608 -0.8064
vn -0.0000 0.6615 -0.7500
vn -0.1566 -0.0000 -0.9877
vn -0.3824 0.7490 -0.5411
vn -0.0000 -0.5944 -0.8041
vn -0.1382 -0.0876 -0.9865
vn 0.3055 -0.0000 -0.9522
vn -0.2014 0.5828 -0.7872
vn -0.3915 -0.1331 -0.9105
vn -0.2064 -0.1668 -0.9641
vn 0.2747 0.2376 -0.9317
vn -0.0000 0.1713 -0.9852
vn -0.1470 -0.0400 -0.9883
vn -0.3452 -0.1047 -0.9327
vn -0.3409 -0.1085 -0.9338
vn -0.2320 -0.1232 -0.9649
vn 0.2822 0.0406 -0.9585
vn -0.1724 0.2716 -0.9468
vn 0.3156 -0.0497 -0.9476
vn -0.2594 0.0408 -0.9649
vn 0.8528 -0.1343 -0.5047
vn 0.3417 0.5959 -0.7267
vn 0.4335 -0.0643 -0.8989
vn 0.1341 -0.1866 -0.9732
vn 0.3405 0.0093 -0.9402
vn 0.4259 -0.4112 -0.8060
vn 0.0024 -0.0873 -0.9962
vn -0.1564 -0.2505 -0.9554
vn 0.2439 -0.1238 -0.9619
vn 0.4337 0.0001 -0.9011
vn 0.2617 -0.0370 -0.9644
vn 0.2851 0.0706 -0.9559
vn 0.1353 -0.1852 -0.9733
vn 0.1120 -0.1874 -0.9759
vn 0.5912 -0.2608 -0.7632
vn 0.2893 -0.2019 -0.9357
vn 0.7005 0.1344 -0.7008
vn 0.0078 0.2652 -0.9642
vn 0.4324 0.0550 -0.9000
vn -0.0191 0.0228 -0.9996
vn 0.6724 0.1676 -0.7210
vn 0.8487 -0.0010 -0.5288
vn -0.8311 -0.5514 -0.0727
vn -0.0079 0.1903 -0.9817
vn 0.5598 0.1983 -0.8045
vn 0.5599 0.1983 -0.8045
vn -0.2278 0.1411 -0.9634
vn -0.8693 0.2979 -0.3944
vn -0.4188 -0.0980 -0.9028
vn -0.6983 0.0275 -0.7153
vn -0.1213 0.9668 -0.2249
vn -0.4332 -0.0291 -0.9008
vn 0.4266 -0.0904 -0.8999
vn 0.9757 0.2072 -0.0718
vn 0.0051 -0.1883 -0.9821
vn 0.0125 -0.4643 -0.8856
vn 0.5280 -0.1566 -0.8347
vn -0.0558 -0.0078 -0.9984
vn -0.4292 0.1700 -0.8871
vn -0.7692 -0.1941 -0.6089
vn 0.1802 -0.4060 -0.8959
vn -0.3023 0.0802 -0.9498
vn -0.6330 -0.2322 -0.7386
vn -0.3236 0.2145 -0.9216
vn -0.2011 0.5086 -0.8372
vn -0.5970 0.2224 -0.7708
vn -0.1725 0.0812 -0.9816
vn -0.4734 -0.1566 -0.8668
vn -0.3699 0.0652 -0.9268
vn -0.5451 -0.3997 -0.7369
vn -0.1995 0.4537 -0.8685
vn -0.3975 -0.8990 -0.1839
vn 0.0419 -0.5094 -0.8595
vn 0.3308 -0.0897 -0.9394
vn -0.1556 -0.5102 -0.8458
vn -0.3369 -0.0298 -0.9411
vn 0.2487 -0.0739 -0.9658
vn -0.1400 -0.2826 -0.9490
vn -0.0601 -0.3557 -0.9327
vn -0.0641 0.0569 -0.9963
vn 0.1532 -0.2339 -0.9601
vn -0.4732 -0.0788 -0.8774
vn 0.0606 0.1379 -0.9886
vn 0.5299 -0.6520 -0.5423
vn -0.0567 0.0234 -0.9981
vn 0.6313 0.0620 -0.7731
vn 0.2699 0.5834 -0.7661
vn -0.6826 0.3671 -0.6319
vn -0.0798 -0.4339 -0.8974
vn -0.5211 0.0448 -0.8523
vn 0.0123 0.4400 -0.8979
vn 0.0126 -0.0081 -0.9999
vn 0.0043 -0.0412 -0.9991
vn 0.6111 0.1354 -0.7799
vn -0.4218 -0.1573 -0.8929
vn 0.8332 0.2732 -0.4808
vn 0.0584 0.0906 -0.9942
vn 0.1800 -0.5246 -0.8321
vn -0.1755 0.2248 -0.9585
vn -0.1796 -0.1659 -0.9696
vn 0.0049 0.3320 -0.9433
vn -0.0947 0.1230 -0.9879
vn 0.1904 -0.7796 -0.5966
vn 0.2745 0.5994 -0.7519
vn -0.0514 0.2440 -0.9684
vn -0.2184 0.3992 -0.8905
vn 0.1328 -0.0000 -0.9911
vn 0.0735 0.5472 -0.8337
vn -0.4971 -0.6066 -0.6204
vn 0.2803 -0.0000 -0.9599
vn 0.0496 0.4937 -0.8682
vn 0.0867 0.3277 -0.9408
vn 0.1618 0.1000 -0.9817
vn -0.0485 -0.6091 -0.7916
vn -0.2488 -0.7920 -0.5575
vn 0.0104 -0.6332 -0.7739
vn 0.0938 0.4664 -0.8796
vn 0.0192 0.7109 -0.7031
vn 0.2119 0.5068 -0.8356
vn -0.0004 0.1433 -0.9897
vn -0.0309 0.1022 -0.9943
vn -0.0515 -0.0000 -0.9987
vn -0.0125 -0.0970 -0.9952
vn -0.0957 0.0287 -0.9950
vn 0.0362 -0.6032 -0.7968
vn 0.2633 0.2598 -0.9291
vn 0.1759 0.5249 -0.8328
vn -0.1267 -0.5726 -0.8100
vn -0.2308 -0.2559 -0.9387
vn -0.0000 0.8134 -0.5817
vn 0.1862 -0.1216 -0.9750
vn 0.1973 0.5823 -0.7886
vn -0.1479 0.1288 -0.9806
vn -0.7467 -0.0000 -0.6652
vn 0.5968 -0.3901 -0.7012
vn -0.0523 0.0247 -0.9983
vn 0.1141 -0.0860 -0.9897
vn 0.0348 0.0245 -0.9991
vn -0.1402 0.3783 -0.9150
vn -0.3030 -0.4275 -0.8517
vn -0.1819 0.3202 -0.9297
vn 0.1524 0.1961 -0.9687
vn -0.2436 0.2993 -0.9226
vn -0.3691 -0.5315 -0.7624
vn 0.4511 -0.0000 -0.8925
vn -0.4049 -0.0250 -0.9140
vn -0.0000 0.4378 -0.8991
vn -0.0000 -0.2830 -0.9591
vn 0.2804 0.0741 -0.9570
vn 0.2553 -0.0006 -0.9669
vn 0.2851 0.1818 -0.9411
vn 0.2360 -0.6368 -0.7340
vn -0.6316 0.1469 -0.7613
vn -0.0403 -0.3642 -0.9305
vn 0.1967 0.1777 -0.9642
vn -0.5318 0.1132 -0.8393
vn 0.1294 -0.0000 -0.9916
vn -0.0162 -0.6012 -0.7989
vn -0.2082 -0.7361 -0.6440
vn 0.4069 0.5227 -0.7491
vn -0.3726 -0.5281 -0.7630
vn 0.1300 -0.4084 -0.9035
vn 0.2879 0.0742 -0.9548
vn -0.0201 -0.7460 -0.6656
vn 0.4438 0.6289 -0.6384
vn -0.3548 -0.2134 -0.9103
vn -0.5406 0.2726 -0.7959
vn 0.7309 0.1243 -0.6711
vn 0.0359 0.0761 -0.9964
vn 0.9998 -0.0000 -0.0208
vn -0.9998 -0.0000 0.0208
vn -0.0000 0.9996 -0.0280
vn -0.0000 -0.9996 0.0280
vn 0.9999 0.0003 -0.0124
vn 0.9998 0.0004 -0.0180
vn 1.0000 -0.0008 -0.0089
vn 0.9999 0.0003 -0.0148
vn 0.9999 0.0003 -0.0132
vn -1.0000 0.0008 0.0098
vn -0.2669 -0.9633 0.0279
vn 0.0024 0.9998 -0.0208
vn 0.9998 0.0002 -0.0208
vn 0.8034 -0.5955 -0.0000
vn 0.2602 0.9645 -0.0450
vn 0.0008 -0.9997 0.0260
vn 0.9998 0.0006 -0.0193
vn 0.2366 -0.0653 0.9694
vn -0.3140 -0.0901 0.9451
vn -0.2420 -0.0000 0.9703
vn 0.5431 -0.0000 0.8397
vn 0.6466 0.2021 0.7355
vn -0.0000 -0.0897 0.9960
vn -0.6021 -0.3885 0.6976
vn -0.0000 -0.0000 1.0000
vn 0.2556 0.0535 0.9653
vn -0.2807 -0.0000 0.9598
vn 0.1880 -0.5608 0.8064
vn -0.0000 0.6615 0.7500
vn -0.1566 -0.0000 0.9877
vn -0.3824 0.7490 0.5411
vn -0.0000 -0.5944 0.8041
vn -0.1382 -0.0876 0.9865
vn 0.3055 -0.0000 0.9522
vn -0.2014 0.5828 0.7872
vn -0.3915 -0.1331 0.9105
vn -0.2064 -0.1668 0.9641
vn 0.2747 0.2376 0.9317
vn -0.0000 0.1713 0.9852
vn -0.1470 -0.0400 0.9883
vn -0.3452 -0.1047 0.9327
vn -0.3409 -0.1085 0.9338
vn -0.2320 -0.1232 0.9649
vn 0.2822 0.0406 0.9585
vn -0.1724 0.2716 0.9468
vn 0.3156 -0.0497 0.9476
vn -0.2594 0.0408 0.9649
vn 0.8528 -0.1343 0.5047
vn 0.3417 0.5959 0.7267
vn 0.4335 -0.0643 0.8989
vn 0.1341 -0.1866 0.9732
vn 0.3405 0.0093 0.9402
vn 0.4259 -0.4112 0.8060
vn 0.0024 -0.0873 0.9962
vn -0.1564 -0.2505 0.9554
vn 0.2439 -0.1238 0.9619
vn 0.4337 0.0001 0.9011
vn 0.2617 -0.0370 0.9644
vn 0.2851 0.0706 0.9559
vn 0.1353 -0.1852 0.9733
vn 0.1120 -0.1874 0.9759
vn 0.5912 -0.2608 0.7632
vn 0.2893 -0.2019 0.9357
vn 0.7005 0.1344 0.7008
vn 0.0078 0.2652 0.9642
vn 0.4324 0.0550 0.9000
vn -0.0191 0.0228 0.9996
vn 0.6724 0.1676 0.7210
vn 0.8487 -0.0010 0.5288
vn -0.8311 -0.5514 0.0727
vn -0.0079 0.1903 0.9817
vn 0.5598 0.1983 0.8045
vn 0.5599 0.1983 0.8045
vn -0.2278 0.1411 0.9634
vn -0.8693 0.2979 0.3944
vn -0.4188 -0.0980 0.9028
vn -0.6983 0.0275 0.7153
vn -0.1213 0.9668 0.2249
vn -0.4332 -0.0291 0.9008
vn 0.4266 -0.0904 0.8999
vn 0.9757 0.2072 0.0718
vn 0.0051 -0.1883 0.9821
vn 0.0125 -0.4643 0.8856
vn 0.5280 -0.1566 0.8347
vn -0.0558 -0.0078 0.9984
vn -0.4292 0.1700 0.8871
vn -0.7692 -0.1941 0.6089
vn 0.1802 -0.4060 0.8959
vn -0.3023 0.0802 0.9498
vn -0.6330 -0.2322 0.7386
vn -0.3236 0.2145 0.9216
vn -0.2011 0.5086 0.8372
vn -0.5970 0.2224 0.7708
vn -0.1725 0.0812 0.9816
vn -0.4734 -0.1565 0.8668
vn -0.3699 0.0652 0.9268
vn -0.5451 -0.3997 0.7369
vn -0.1995 0.4537 0.8685
vn -0.3975 -0.8990 0.1839
vn 0.0419 -0.5094 0.8595
vn 0.3308 -0.0897 0.9394
vn -0.1556 -0.5102 0.8458
vn -0.3369 -0.0298 0.9411
vn 0.2487 -0.0739 0.9658
vn -0.1400 -0.2826 0.9490
vn -0.0601 -0.3557 0.9327
vn -0.0641 0.0569 0.9963
vn 0.1532 -0.2339 0.9601
vn -0.4732 -0.0788 0.8774
vn 0.0606 0.1379 0.9886
vn 0.5299 -0.6520 0.5423
vn -0.0567 0.0234 0.9981
vn 0.6313 0.0620 0.7731
vn 0.2699 0.5834 0.7661
vn -0.6826 0.3671 0.6319
vn -0.0798 -0.4339 0.8974
vn -0.5211 0.0448 0.8523
vn 0.0123 0.4400 0.8979
vn 0.0126 -0.0081 0.9999
vn 0.0043 -0.0412 0.9991
vn 0.6111 0.1354 0.7799
vn -0.4218 -0.1573 0.8929
vn 0.8332 0.2732 0.4808
vn 0.0584 0.0906 0.9942
vn 0.1800 -0.5246 0.8321
vn -0.1755 0.2248 0.9585
vn -0.1796 -0.1659 0.9696
vn 0.0049 0.3320 0.9433
vn -0.0947 0.1230 0.9879
vn 0.1904 -0.7796 0.5966
vn 0.2745 0.5994 0.7519
vn -0.0514 0.2440 0.9684
vn -0.2184 0.3992 0.8905
vn 0.1328 -0.0000 0.9911
vn 0.0735 0.5472 0.8337
vn -0.4971 -0.6066 0.6204
vn 0.2803 -0.0000 0.9599
vn 0.2261 0.8174 0.5299
vn 0.1662 -0.2917 0.9420
vn 0.1618 0.1000 0.9817
vn -0.1039 -0.8037 0.5859
vn -0.2488 -0.7920 0.5575
vn 0.0104 -0.6332 0.7739
vn -0.0102 0.9505 0.3106
vn 0.0192 0.7109 0.7031
vn 0.2119 0.5068 0.8356
vn -0.0004 0.1433 0.9897
vn -0.0309 0.1022 0.9943
vn -0.0515 -0.0000 0.9987
vn -0.0125 -0.0970 0.9952
vn -0.0653 -0.8671 0.4938
vn 0.0362 -0.6032 0.7968
vn 0.2633 0.2598 0.9291
vn 0.1759 0.5249 0.8328
vn -0.1267 -0.5726 0.8100
vn -0.2308 -0.2559 0.9387
vn -0.0000 0.8134 0.5817
vn 0.1862 -0.1216 0.9750
vn 0.1973 0.5823 0.7886
vn -0.1479 0.1288 0.9806
vn -0.7467 -0.0000 0.6652
vn 0.5968 -0.3901 0.7012
vn -0.0523 0.0247 0.9983
vn 0.1141 -0.0860 0.9897
vn 0.0348 0.0245 0.9991
vn -0.1402 0.3783 0.9150
vn -0.3030 -0.4275 0.8517
vn -0.1819 0.3202 0.9297
vn 0.1524 0.1961 0.9687
vn -0.2436 0.2993 0.9226
vn -0.3691 -0.5315 0.7624
vn 0.4511 -0.0000 0.8925
vn -0.4049 -0.0250 0.9140
vn -0.0000 0.4378 0.8991
vn -0.0000 -0.2830 0.9591
vn 0.2804 0.0741 0.9570
vn 0.2553 -0.0006 0.9669
vn 0.2851 0.1818 0.9411
vn 0.2360 -0.6368 0.7340
vn -0.6316 0.1469 0.7613
vn -0.0403 -0.3642 0.9305
vn 0.1967 0.1777 0.9642
vn -0.5318 0.1132 0.8393
vn 0.1294 -0.0000 0.9916
vn -0.0162 -0.6012 0.7989
vn -0.2082 -0.7361 0.6440
vn 0.4069 0.5227 0.7491
vn -0.3726 -0.5281 0.7630
vn 0.1300 -0.4085 0.9035
vn 0.2879 0.0742 0.9548
vn -0.0201 -0.7460 0.6656
vn 0.4438 0.6289 0.6384
vn -0.3548 -0.2134 0.9103
vn -0.5406 0.2726 0.7959
vn 0.7309 0.1243 0.6711
vn 0.0359 0.0761 0.9964
vn 0.9998 -0.0000 0.0208
vn -0.9998 -0.0000 -0.0208
vn -0.0000 0.9996 0.0280
vn -0.0000 -0.9996 -0.0280
vn 0.9999 0.0003 0.0124
vn 0.9998 0.0004 0.0180
vn 1.0000 -0.0008 0.0089
vn 0.9999 0.0003 0.0148
vn 0.9999 0.0003 0.0132
vn -1.0000 0.0008 -0.0098
vn -0.2669 -0.9633 -0.0279
vn 0.0024 0.9998 0.0208
vn 0.9998 0.0002 0.0208
vn 0.2602 0.9645 0.0450
vn 0.0008 -0.9997 -0.0260
vn 0.9998 0.0006 0.0193
vn -0.2852 -0.0945 0.9538
vn 0.0453 -0.1056 -0.9934
vt 0.843750 0.000000
vt 0.875000 0.000000
vt 0.804818 0.000000
vt 0.788803 0.000000
vt 0.328125 0.000000
vt 0.306552 0.000000
vt 0.311956 0.000000
vt 0.329677 0.000000
vt 0.350391 0.000000
vt 0.093750 0.000000
vt 0.098501 0.000000
vt 0.085735 0.000000
vt 0.562500 0.000000
vt 0.565211 0.000000
vt 0.556865 0.000000
vt 0.234375 0.000000
vt 0.171814 0.000000
vt 0.250827 0.000000
vt 0.277120 0.000000
vt 0.273475 0.000000
vt 0.468750 0.000000
vt 0.418374 0.000000
vt 0.453125 0.000000
vt 0.968750 0.000000
vt 0.950266 0.000000
vt 0.816530 0.000000
vt 0.687500 0.000000
vt 0.218750 0.000000
vt 0.223866 0.000000
vt 0.227128 0.000000
vt 0.656250 0.000000
vt 0.755746 0.000000
vt 0.783495 0.000000
vt 0.692097 0.000000
vt 0.406250 0.000000
vt 0.313168 0.000000
vt 0.203125 0.000000
vt 0.199239 0.000000
vt 0.320804 0.000000
vt 0.266873 0.000000
vt 0.236037 0.000000
vt 0.031250 0.000000
vt 0.088942 0.000000
vt 0.124714 0.000000
vt 0.125000 0.000000
vt 0.937500 0.000000
vt 0.906250 0.000000
vt 0.718750 0.000000
vt 0.813598 0.000000
vt 0.427275 0.000000
vt 0.437500 0.000000
vt 0.156250 0.000000
vt 0.168794 0.000000
vt 0.198026 0.000000
vt 0.808374 0.000000
vt 0.812500 0.000000
vt 0.750000 0.000000
vt 0.781250 0.000000
vt 0.786204 0.000000
vt 0.800175 0.000000
vt 0.843282 0.000000
vt 0.870812 0.000000
vt 0.756128 0.000000
vt 0.685273 0.000000
vt 0.625000 0.000000
vt 0.640793 0.000000
vt 0.896782 0.000000
vt 0.915954 0.000000
vt 0.919707 0.000000
vt 1.000000 0.000000
vt 0.926299 0.000000
vt 0.684789 0.000000
vt 0.788071 0.000000
vt 0.777413 0.000000
vt 0.764482 0.000000
vt 0.669716 0.000000
vt 0.679044 0.000000
vt 0.302138 0.000000
vt 0.305709 0.000000
vt 0.223632 0.000000
vt 0.290944 0.000000
vt 0.206077 0.000000
vt 0.237967 0.000000
vt 0.166857 0.000000
vt 0.077467 0.000000
vt 0.138797 0.000000
vt 0.072780 0.000000
vt 0.128841 0.000000
vt 0.000000 0.000000
vt 0.190031 0.000000
vt 0.204111 0.000000
vt 0.392006 0.000000
vt 0.376888 0.000000
vt 0.349610 0.000000
vt 0.373822 0.000000
vt 0.284293 0.000000
vt 0.323699 0.000000
vt 0.306262 0.000000
vt 0.349855 0.000000
vt 0.302784 0.000000
vt 0.346148 0.000000
vt 0.359117 0.000000
vt 0.370497 0.000000
vt 0.326071 0.000000
vt 0.346764 0.000000
vt 0.394017 0.000000
vt 0.421875 0.000000
vt 0.400763 0.000000
vt 0.397101 0.000000
vt 0.398125 0.000000
vt 0.397146 0.000000
vt 0.397090 0.000000
vt 0.380114 0.000000
vt 0.424030 0.000000
vt 0.426470 0.000000
vt 0.422661 0.000000
vt 0.418807 0.000000
vt 0.419500 0.000000
vt 0.407751 0.000000
vt 0.395566 0.000000
vt 0.370925 0.000000
vt 0.397772 0.000000
vt 0.395025 0.000000
vt 0.405351 0.000000
vt 0.546187 0.000000
vt 0.547882 0.000000
vt 0.549882 0.000000
vt 0.547424 0.000000
vt 0.550572 0.000000
vt 0.567570 0.000000
vt 0.575058 0.000000
vt 0.566228 0.000000
vt 0.555929 0.000000
vt 0.535908 0.000000
vt 0.555461 0.000000
vt 0.545673 0.000000
vt 0.540666 0.000000
vt 0.534724 0.000000
vt 0.523476 0.000000
vt 0.532677 0.000000
vt 0.517533 0.000000
vt 0.531704 0.000000
vt 0.523646 0.000000
vt 0.510391 0.000000
vt 0.526793 0.000000
vt 0.502886 0.000000
vt 0.541810 0.000000
vt 0.549339 0.000000
vt 0.500000 0.000000
vt 0.557587 0.000000
vt 0.593750 0.000000
vt 0.580118 0.000000
vt 0.587838 0.000000
vt 0.573440 0.000000
vt 0.555637 0.000000
vt 0.562342 0.000000
vt 0.566838 0.000000
vt 0.581947 0.000000
vt 0.582225 0.000000
vt 0.555561 0.000000
vt 0.577901 0.000000
vt 0.558436 0.000000
vt 0.549568 0.000000
vt 0.541587 0.000000
vt 0.546860 0.000000
vt 0.528702 0.000000
vt 0.542507 0.000000
vt 0.531250 0.000000
vt 0.375000 0.000000
vt 0.340072 0.000000
vt 0.366098 0.000000
vt 0.336496 0.000000
vt 0.338994 0.000000
vt 0.359160 0.000000
vt 0.343750 0.000000
vt 0.251686 0.000000
vt 0.178770 0.000000
vt 0.205757 0.000000
vt 0.253424 0.000000
vt 0.250067 0.000000
vt 0.313195 0.000000
vt 0.291822 0.000000
vt 0.280200 0.000000
vt 0.187500 0.000000
vt 0.229841 0.000000
vt 0.248418 0.000000
vt 0.248589 0.000000
vt 0.250000 0.000000
vt 0.281250 0.000000
vt 0.282885 0.000000
vt 0.256002 0.000000
vt 0.268381 0.000000
vt 0.312500 0.000000
vt 0.249810 0.000000
vt 0.261594 0.000000
vt 0.124455 0.000000
vt 0.102899 0.000000
vt 0.095552 0.000000
vt 0.083162 0.000000
vt 0.081193 0.000000
vt 0.078490 0.000000
vt 0.075046 0.000000
vt 0.066016 0.000000
vt 0.085303 0.000000
vt 0.062749 0.000000
vt 0.050329 0.000000
vt 0.072449 0.000000
vt 0.097694 0.000000
vt 0.041947 0.000000
vt 0.059241 0.000000
vt 0.062500 0.000000
vt 0.055386 0.000000
vt 0.067656 0.000000
vt 0.075486 0.000000
vt 0.071659 0.000000
vt 0.060022 0.000000
vt 0.079122 0.000000
vt 0.036201 0.000000
vt 0.063044 0.000000
vt 0.087888 0.000000
vt 0.085808 0.000000
s 0
f 31/1/1 13/2/1 34/3/1 33/4/1
f 42/5/2 90/6/2 108/7/2 112/8/2 69/9/2
f 18/10/3 194/11/3 202/12/3
f 9/13/4 125/14/4 167/15/4
f 41/16/5 65/17/5 95/18/5 84/19/5 83/20/5
f 24/21/6 96/22/6 39/23/6
f 36/24/7 50/25/7 61/26/7 11/27/7
f 20/28/8 184/29/8 191/30/8
f 27/31/9 44/32/9 45/33/9 60/34/9
f 6/35/8 68/36/8 38/37/8 76/38/8 82/39/8
f 6/35/8 82/39/8 81/40/8 80/41/8 16/42/8 196/43/8 197/44/8 19/45/8
f 15/46/10 36/24/10 11/27/10
f 14/47/10 15/46/10 11/27/10
f 14/47/11 11/27/11 12/48/11 32/49/11
f 14/47/8 32/49/8 34/3/8 13/2/8
f 39/23/12 79/50/12 7/51/12
f 2/52/13 173/53/13 182/54/13
f 31/1/14 33/4/14 35/55/14
f 31/1/15 35/55/15 30/56/15
f 34/3/8 32/49/8 12/48/8
f 33/4/16 34/3/16 12/48/16 28/57/16
f 30/56/17 35/55/17 29/58/17
f 35/55/18 33/4/18 28/57/18 29/58/18
f 60/34/19 45/33/19 59/59/19
f 59/59/20 45/33/20 46/60/20 47/61/20
f 47/61/21 48/62/21 52/63/21 51/64/21 59/59/21
f 51/64/8 26/65/8 43/66/8
f 43/66/22 27/31/22 60/34/22
f 43/66/23 60/34/23 59/59/23 51/64/23
f 52/63/24 48/62/24 58/67/24
f 58/67/25 48/62/25 49/68/25 57/69/25
f 57/69/26 49/68/26 50/25/26 36/24/26
f 36/24/8 37/70/8 53/71/8 57/69/8
f 53/71/8 52/63/8 58/67/8
f 53/71/8 58/67/8 57/69/8
f 11/27/27 61/26/27 56/72/27
f 56/72/28 61/26/28 50/25/28 62/73/28
f 62/73/29 50/25/29 49/68/29 48/62/29 47/61/29 63/74/29
f 63/74/30 47/61/30 46/60/30 64/75/30
f 64/75/31 46/60/31 45/33/31 44/32/31
f 44/32/30 27/31/30 54/76/30
f 54/76/30 55/77/30 63/74/30 64/75/30
f 55/77/30 56/72/30 62/73/30
f 55/77/30 62/73/30 63/74/30
f 54/76/30 64/75/30 44/32/30
f 84/19/32 95/18/32 85/78/32
f 85/78/33 91/79/33 42/5/33
f 42/5/34 91/79/34 89/80/34 67/81/34 90/6/34
f 67/81/35 89/80/35 93/82/35 66/83/35
f 66/83/36 94/84/36 76/38/36 38/37/36
f 76/38/37 94/84/37 75/85/37
f 75/85/38 94/84/38 87/86/38 74/87/38
f 74/87/39 87/86/39 86/88/39 1/89/39
f 1/89/40 86/88/40 88/90/40 65/17/40
f 88/90/41 86/88/41 92/91/41
f 92/91/42 86/88/42 87/86/42 93/82/42
f 92/91/43 93/82/43 89/80/43
f 92/91/44 89/80/44 91/79/44 85/78/44 95/18/44 88/90/44
f 88/90/45 95/18/45 65/17/45
f 87/86/46 94/84/46 66/83/46 93/82/46
f 39/23/47 96/22/47 78/92/47 79/50/47
f 78/92/48 96/22/48 98/93/48 101/94/48 42/5/48 77/95/48
f 42/5/49 101/94/49 100/96/49 84/19/49 85/78/49
f 84/19/49 100/96/49 83/20/49
f 83/20/49 99/97/49 97/98/49 41/16/49
f 41/16/50 97/98/50 96/22/50 24/21/50
f 97/98/49 99/97/49 103/99/49
f 103/99/51 99/97/51 102/100/51 98/93/51
f 102/100/52 99/97/52 83/20/52 100/96/52
f 102/100/53 100/96/53 101/94/53
f 102/100/54 101/94/54 98/93/54
f 103/99/55 96/22/55 97/98/55
f 103/99/56 98/93/56 96/22/56
f 69/9/57 112/8/57 106/101/57 111/102/57
f 111/102/58 106/101/58 109/103/58
f 109/103/59 106/101/59 107/104/59 104/105/59 6/35/59 110/106/59
f 110/106/60 6/35/60 40/107/60 73/108/60 105/109/60
f 105/109/61 73/108/61 72/110/61
f 72/110/62 71/111/62 113/112/62
f 113/112/62 71/111/62 70/113/62 69/9/62 111/102/62
f 113/112/63 111/102/63 109/103/63 110/106/63 105/109/63
f 113/112/64 105/109/64 72/110/64
f 6/35/65 104/105/65 68/36/65
f 66/83/66 38/37/66 68/36/66
f 107/104/67 106/101/67 112/8/67 108/7/67
f 82/39/8 76/38/8 75/85/8 81/40/8
f 81/40/8 74/87/8 1/89/8 80/41/8
f 80/41/8 1/89/8 16/42/8
f 74/87/8 81/40/8 75/85/8
f 7/51/68 119/114/68 118/115/68 117/116/68 123/117/68 120/118/68 40/107/68
f 40/107/69 124/119/69 73/108/69
f 73/108/70 124/119/70 121/120/70 71/111/70 72/110/70
f 71/111/71 121/120/71 114/121/71 70/113/71
f 70/113/69 114/121/69 69/9/69
f 69/9/69 114/121/69 77/95/69 42/5/69
f 77/95/72 115/122/72 117/116/72 118/115/72 119/114/72 78/92/72
f 78/92/73 119/114/73 79/50/73
f 115/122/69 77/95/69 114/121/69
f 115/122/74 114/121/74 122/123/74
f 122/123/75 114/121/75 121/120/75
f 122/123/76 121/120/76 124/119/76 120/118/76 123/117/76
f 122/123/74 123/117/74 115/122/74
f 115/122/77 123/117/77 117/116/77 116/124/77
f 116/124/78 117/116/78 115/122/78
f 124/119/79 40/107/79 120/118/79
f 119/114/80 7/51/80 79/50/80
f 133/125/81 166/126/81 145/127/81 139/128/81
f 139/128/82 145/127/82 165/129/82
f 165/129/83 145/127/83 125/14/83 126/130/83
f 126/130/84 127/131/84 146/132/84 162/133/84
f 162/133/85 146/132/85 142/134/85 141/135/85 140/136/85
f 140/136/86 141/135/86 142/134/86 143/137/86
f 143/137/87 142/134/87 163/138/87 137/139/87
f 137/139/8 163/138/8 164/140/8 136/141/8
f 136/141/8 147/142/8 158/143/8 135/144/8
f 135/144/8 159/145/8 134/146/8
f 134/146/88 153/147/88 132/148/88 25/149/88
f 132/148/89 160/150/89 10/151/89
f 10/151/90 152/152/90 131/153/90
f 131/153/8 152/152/8 161/154/8
f 161/154/91 152/152/91 160/150/91 153/147/91 159/145/91 154/155/91
f 154/155/92 159/145/92 135/144/92 158/143/92
f 154/155/93 158/143/93 156/156/93 155/157/93
f 155/157/94 156/156/94 129/158/94 130/159/94
f 130/159/95 131/153/95 161/154/95 155/157/95
f 129/158/96 156/156/96 157/160/96 128/161/96
f 128/161/8 151/162/8 127/131/8
f 151/162/97 128/161/97 157/160/97 150/163/97
f 150/163/98 157/160/98 158/143/98
f 150/163/8 158/143/8 147/142/8
f 150/163/99 147/142/99 164/140/99 148/164/99
f 148/164/100 164/140/100 163/138/100
f 148/164/101 163/138/101 142/134/101 146/132/101 149/165/101
f 149/165/102 146/132/102 127/131/102 151/162/102
f 149/165/103 151/162/103 150/163/103
f 149/165/104 150/163/104 148/164/104
f 157/160/105 156/156/105 158/143/105
f 155/157/106 161/154/106 154/155/106
f 152/152/107 10/151/107 160/150/107
f 160/150/108 132/148/108 153/147/108
f 153/147/109 134/146/109 159/145/109
f 147/142/8 136/141/8 164/140/8
f 137/139/110 138/166/110 144/167/110 143/137/110
f 144/167/111 138/166/111 139/128/111
f 144/167/112 139/128/112 165/129/112 162/133/112 140/136/112
f 144/167/113 140/136/113 143/137/113
f 138/166/8 8/168/8 139/128/8
f 8/168/8 133/125/8 139/128/8
f 162/133/114 165/129/114 126/130/114
f 166/126/115 167/15/115 125/14/115 145/127/115
f 167/15/116 166/126/116 133/125/116 9/13/116
f 23/169/117 172/170/117 169/171/117
f 169/171/118 172/170/118 171/172/118
f 169/171/119 171/172/119 170/173/119
f 169/171/120 170/173/120 168/174/120
f 168/174/120 170/173/120 5/175/120
f 182/54/121 173/53/121 179/176/121
f 179/176/122 173/53/122 174/177/122 180/178/122
f 180/178/123 181/178/123 174/177/123 177/179/123
f 177/179/124 174/177/124 176/180/124 172/170/124 178/181/124 179/176/124
f 178/181/125 172/170/125 23/169/125
f 23/169/126 2/52/126 182/54/126 183/182/126
f 183/182/127 182/54/127 179/176/127 178/181/127
f 183/182/128 178/181/128 23/169/128
f 172/170/129 175/183/129 171/172/129
f 171/172/130 175/183/130 3/184/130 5/175/130 170/173/130
f 3/184/131 175/183/131 176/180/131
f 3/184/132 176/180/132 174/177/132
f 175/183/133 172/170/133 176/180/133
f 180/178/134 177/179/134 179/176/134
f 191/30/8 184/29/8 190/185/8
f 190/185/8 184/29/8 192/186/8
f 192/186/8 184/29/8 193/187/8
f 193/187/8 184/29/8 21/188/8
f 21/188/135 4/189/135 188/190/135 189/191/135 192/186/135 193/187/135
f 189/191/136 188/190/136 187/192/136
f 187/192/137 188/190/137 22/193/137
f 187/192/138 185/194/138 189/191/138
f 185/194/139 187/192/139 22/193/139
f 22/193/140 20/28/140 186/195/140
f 186/195/141 20/28/141 191/30/141
f 186/195/142 191/30/142 190/185/142 185/194/142
f 186/195/143 185/194/143 22/193/143
f 22/193/144 188/190/144 4/189/144
f 185/194/145 190/185/145 192/186/145 189/191/145
f 202/12/146 194/11/146 195/196/146 204/197/146 203/198/146
f 203/198/147 204/197/147 214/199/147 213/200/147
f 213/200/148 214/199/148 215/201/148 216/202/148
f 216/202/149 215/201/149 211/203/149
f 211/203/150 215/201/150 206/204/150 207/205/150 200/206/150
f 207/205/151 206/204/151 218/207/151
f 218/207/152 206/204/152 205/208/152
f 218/207/153 199/209/153 207/205/153
f 218/207/154 220/210/154 199/209/154
f 199/209/155 200/206/155 207/205/155
f 200/206/8 17/211/8 208/212/8
f 208/212/156 17/211/156 209/213/156
f 209/213/157 17/211/157 201/214/157
f 201/214/158 18/10/158 202/12/158
f 201/214/159 202/12/159 209/213/159
f 209/213/160 212/215/160 217/216/160 208/212/160
f 217/216/161 212/215/161 216/202/161 211/203/161
f 217/216/162 211/203/162 200/206/162
f 217/216/163 200/206/163 208/212/163
f 212/215/164 209/213/164 210/217/164
f 210/217/165 209/213/165 202/12/165 203/198/165 213/200/165
f 212/215/166 210/217/166 213/200/166 216/202/166
f 199/209/167 220/210/167 198/218/167
f 198/218/167 220/210/167 16/42/167
f 16/42/168 222/219/168 196/43/168
f 196/43/169 222/219/169 221/220/169
f 221/220/170 222/219/170 220/210/170 219/221/170
f 219/221/171 220/210/171 218/207/171
f 219/221/172 218/207/172 205/208/172
f 205/208/173 206/204/173 204/197/173 195/196/173 19/45/173 197/44/173
f 197/44/174 196/43/174 221/220/174
f 197/44/175 221/220/175 219/221/175
f 197/44/176 219/221/176 205/208/176
f 222/219/177 16/42/177 220/210/177
f 206/204/178 215/201/178 214/199/178
f 206/204/179 214/199/179 204/197/179
f 173/53/180 258/53/180 514/177/180 174/177/180
f 4/189/181 487/189/181 236/193/181 22/193/181
f 28/57/182 240/57/182 496/58/182 29/58/182
f 169/171/181 257/171/181 237/169/181 23/169/181
f 29/58/180 496/58/180 241/56/180 30/56/180
f 16/42/181 232/42/181 262/218/181 198/218/181
f 51/64/181 245/64/181 494/65/181 26/65/181
f 30/56/183 241/56/183 242/1/183 31/1/183
f 198/218/181 262/218/181 516/209/181 199/209/181
f 52/63/181 246/63/181 245/64/181 51/64/181
f 56/72/184 248/72/184 489/27/184 11/27/184
f 36/24/183 497/24/183 498/70/183 37/70/183
f 199/209/181 516/209/181 263/206/181 200/206/181
f 53/71/181 502/71/181 246/63/181 52/63/181
f 12/48/180 230/48/180 240/57/180 28/57/180
f 13/2/183 231/2/183 490/47/183 14/47/183
f 17/211/182 233/211/182 517/214/182 201/214/182
f 27/31/185 495/31/185 247/76/185 54/76/185
f 15/46/181 491/46/181 497/24/181 36/24/181
f 42/5/186 500/5/186 250/6/186 90/6/186
f 9/13/180 228/13/180 505/14/180 125/14/180
f 54/76/187 247/76/187 503/77/187 55/77/187
f 125/14/180 505/14/180 506/130/180 126/130/180
f 55/77/188 503/77/188 248/72/188 56/72/188
f 126/130/180 506/130/180 251/131/180 127/131/180
f 1/89/182 486/89/182 232/42/182 16/42/182
f 3/184/183 224/184/183 225/175/183 5/175/183
f 67/81/189 504/81/189 250/6/189 90/6/189
f 127/131/180 251/131/180 507/161/180 128/161/180
f 21/188/183 493/188/183 487/189/183 4/189/183
f 128/161/180 507/161/180 508/158/180 129/158/180
f 174/177/190 514/177/190 259/178/190 180/178/190
f 138/166/181 255/166/181 488/168/181 8/168/181
f 11/27/191 489/27/191 230/48/191 12/48/191
f 129/158/180 508/158/180 252/159/180 130/159/180
f 23/169/182 237/169/182 223/52/182 2/52/182
f 7/51/182 227/51/182 243/23/182 39/23/182
f 130/159/180 252/159/180 253/153/180 131/153/180
f 65/17/192 249/17/192 486/89/192 1/89/192
f 31/1/181 242/1/181 231/2/181 13/2/181
f 132/148/183 509/148/183 239/149/183 25/149/183
f 22/193/182 236/193/182 235/28/182 20/28/182
f 41/16/192 244/16/192 249/17/192 65/17/192
f 8/168/182 488/168/182 510/125/182 133/125/182
f 24/21/192 238/21/192 244/16/192 41/16/192
f 174/177/180 514/177/180 224/184/180 3/184/180
f 25/149/181 239/149/181 511/146/181 134/146/181
f 5/175/181 225/175/181 256/174/181 168/174/181
f 19/45/183 492/45/183 226/35/183 6/35/183
f 200/206/181 263/206/181 233/211/181 17/211/181
f 40/107/181 499/107/181 227/51/181 7/51/181
f 134/146/181 511/146/181 512/144/181 135/144/181
f 180/178/193 259/178/193 181/178/193
f 168/174/181 256/174/181 257/171/181 169/171/181
f 39/23/182 243/23/182 238/21/182 24/21/182
f 135/144/181 512/144/181 513/141/181 136/141/181
f 181/178/194 259/178/194 514/177/194 174/177/194
f 10/151/195 229/151/195 509/148/195 132/148/195
f 131/153/196 253/153/196 229/151/196 10/151/196
f 133/125/182 510/125/182 228/13/182 9/13/182
f 136/141/181 513/141/181 254/139/181 137/139/181
f 20/28/180 235/28/180 260/29/180 184/29/180
f 137/139/181 254/139/181 255/166/181 138/166/181
f 26/65/182 494/65/182 501/66/182 43/66/182
f 14/47/181 490/47/181 491/46/181 15/46/181
f 6/35/181 226/35/181 499/107/181 40/107/181
f 37/70/181 498/70/181 502/71/181 53/71/181
f 201/214/182 517/214/182 234/10/182 18/10/182
f 195/196/180 261/196/180 492/45/180 19/45/180
f 18/10/180 234/10/180 515/11/180 194/11/180
f 184/29/180 260/29/180 493/188/180 21/188/180
f 194/11/180 515/11/180 261/196/180 195/196/180
f 2/52/180 223/52/180 258/53/180 173/53/180
f 43/66/182 501/66/182 495/31/182 27/31/182
f 294/1/197 296/4/197 297/3/197 276/2/197
f 305/5/198 332/9/198 375/8/198 371/7/198 366/6/198
f 281/10/199 465/12/199 457/11/199
f 272/13/200 430/15/200 388/14/200
f 304/16/201 346/20/201 347/19/201 357/18/201 328/17/201
f 287/21/202 302/23/202 358/22/202
f 299/24/203 274/27/203 324/26/203 313/25/203
f 283/28/204 454/30/204 447/29/204
f 290/31/205 323/34/205 308/33/205 307/32/205
f 269/35/204 345/39/204 339/38/204 301/37/204 331/36/204
f 269/35/204 282/45/204 460/44/204 459/43/204 279/42/204 343/41/204 344/40/204 345/39/204
f 278/46/206 274/27/206 299/24/206
f 277/47/206 274/27/206 278/46/206
f 277/47/207 295/49/207 275/48/207 274/27/207
f 277/47/204 276/2/204 297/3/204 295/49/204
f 302/23/208 270/51/208 342/50/208
f 265/52/209 445/54/209 436/53/209
f 294/1/210 298/55/210 296/4/210
f 294/1/211 293/56/211 298/55/211
f 297/3/204 275/48/204 295/49/204
f 296/4/212 291/57/212 275/48/212 297/3/212
f 293/56/213 292/58/213 298/55/213
f 298/55/214 292/58/214 291/57/214 296/4/214
f 323/34/215 322/59/215 308/33/215
f 322/59/216 310/61/216 309/60/216 308/33/216
f 310/61/217 322/59/217 314/64/217 315/63/217 311/62/217
f 314/64/204 306/66/204 289/65/204
f 306/66/218 323/34/218 290/31/218
f 306/66/219 314/64/219 322/59/219 323/34/219
f 315/63/220 321/67/220 311/62/220
f 321/67/221 320/69/221 312/68/221 311/62/221
f 320/69/222 299/24/222 313/25/222 312/68/222
f 299/24/204 320/69/204 316/71/204 300/70/204
f 316/71/204 321/67/204 315/63/204
f 316/71/204 320/69/204 321/67/204
f 274/27/223 319/72/223 324/26/223
f 319/72/224 325/73/224 313/25/224 324/26/224
f 325/73/225 326/74/225 310/61/225 311/62/225 312/68/225 313/25/225
f 326/74/226 327/75/226 309/60/226 310/61/226
f 327/75/227 307/32/227 308/33/227 309/60/227
f 307/32/226 317/76/226 290/31/226
f 317/76/226 327/75/226 326/74/226 318/77/226
f 318/77/226 325/73/226 319/72/226
f 318/77/226 326/74/226 325/73/226
f 317/76/226 307/32/226 327/75/226
f 347/19/228 348/78/228 357/18/228
f 348/78/229 305/5/229 353/79/229
f 305/5/230 366/6/230 330/81/230 352/80/230 353/79/230
f 330/81/231 329/83/231 355/82/231 352/80/231
f 329/83/232 301/37/232 339/38/232 356/84/232
f 339/38/233 338/85/233 356/84/233
f 338/85/234 337/87/234 350/86/234 356/84/234
f 337/87/235 264/89/235 349/88/235 350/86/235
f 264/89/236 328/17/236 351/90/236 349/88/236
f 351/90/237 354/91/237 349/88/237
f 354/91/238 355/82/238 350/86/238 349/88/238
f 354/91/239 352/80/239 355/82/239
f 354/91/240 351/90/240 357/18/240 348/78/240 353/79/240 352/80/240
f 351/90/241 328/17/241 357/18/241
f 350/86/242 355/82/242 329/83/242 356/84/242
f 302/23/243 342/50/243 341/92/243 358/22/243
f 341/92/244 340/95/244 305/5/244 363/94/244 360/93/244 358/22/244
f 305/5/245 348/78/245 347/19/245 362/96/245 363/94/245
f 347/19/245 346/20/245 362/96/245
f 346/20/245 304/16/245 359/98/245 361/97/245
f 304/16/246 287/21/246 358/22/246 359/98/246
f 359/98/245 365/99/245 361/97/245
f 365/99/247 360/93/247 364/100/247 361/97/247
f 364/100/248 362/96/248 346/20/248 361/97/248
f 364/100/249 363/94/249 362/96/249
f 364/100/250 360/93/250 363/94/250
f 365/99/251 359/98/251 358/22/251
f 365/99/252 358/22/252 360/93/252
f 332/9/253 374/102/253 369/101/253 375/8/253
f 374/102/254 372/103/254 369/101/254
f 372/103/255 373/106/255 269/35/255 367/105/255 370/104/255 369/101/255
f 373/106/256 368/109/256 336/108/256 303/107/256 269/35/256
f 368/109/257 335/110/257 336/108/257
f 335/110/258 376/112/258 334/111/258
f 376/112/258 374/102/258 332/9/258 333/113/258 334/111/258
f 376/112/259 368/109/259 373/106/259 372/103/259 374/102/259
f 376/112/260 335/110/260 368/109/260
f 269/35/261 331/36/261 367/105/261
f 329/83/262 331/36/262 301/37/262
f 370/104/263 371/7/263 375/8/263 369/101/263
f 345/39/204 344/40/204 338/85/204 339/38/204
f 344/40/204 343/41/204 264/89/204 337/87/204
f 343/41/204 279/42/204 264/89/204
f 337/87/204 338/85/204 344/40/204
f 270/51/264 303/107/264 383/118/264 386/117/264 380/116/264 381/115/264 382/114/264
f 303/107/265 336/108/265 387/119/265
f 336/108/266 335/110/266 334/111/266 384/120/266 387/119/266
f 334/111/267 333/113/267 377/121/267 384/120/267
f 333/113/265 332/9/265 377/121/265
f 332/9/265 305/5/265 340/95/265 377/121/265
f 340/95/268 341/92/268 382/114/268 381/115/268 380/116/268 378/122/268
f 341/92/269 342/50/269 382/114/269
f 378/122/265 377/121/265 340/95/265
f 378/122/270 385/123/270 377/121/270
f 385/123/271 384/120/271 377/121/271
f 385/123/272 386/117/272 383/118/272 387/119/272 384/120/272
f 385/123/270 378/122/270 386/117/270
f 378/122/273 379/124/273 380/116/273 386/117/273
f 379/124/274 378/122/274 380/116/274
f 387/119/275 383/118/275 303/107/275
f 382/114/276 342/50/276 270/51/276
f 396/125/277 402/128/277 408/127/277 429/126/277
f 402/128/278 428/129/278 408/127/278
f 428/129/279 389/130/279 388/14/279 408/127/279
f 389/130/280 425/133/280 409/132/280 390/131/280
f 425/133/281 403/136/281 404/135/281 405/134/281 409/132/281
f 403/136/282 406/137/282 405/134/282 404/135/282
f 406/137/283 400/139/283 426/138/283 405/134/283
f 400/139/204 399/141/204 427/140/204 426/138/204
f 399/141/204 398/144/204 421/143/204 410/142/204
f 398/144/204 397/146/204 422/145/204
f 397/146/284 288/149/284 395/148/284 416/147/284
f 395/148/285 273/151/285 423/150/285
f 273/151/286 394/153/286 415/152/286
f 394/153/204 424/154/204 415/152/204
f 424/154/287 417/155/287 422/145/287 416/147/287 423/150/287 415/152/287
f 417/155/288 421/143/288 398/144/288 422/145/288
f 417/155/289 418/157/289 419/156/289 421/143/289
f 418/157/290 393/159/290 392/158/290 419/156/290
f 393/159/291 418/157/291 424/154/291 394/153/291
f 392/158/292 391/161/292 420/160/292 419/156/292
f 391/161/204 390/131/204 414/162/204
f 414/162/293 413/163/293 420/160/293 391/161/293
f 413/163/294 421/143/294 420/160/294
f 413/163/204 410/142/204 421/143/204
f 413/163/295 411/164/295 427/140/295 410/142/295
f 411/164/296 426/138/296 427/140/296
f 411/164/297 412/165/297 409/132/297 405/134/297 426/138/297
f 412/165/298 414/162/298 390/131/298 409/132/298
f 412/165/299 413/163/299 414/162/299
f 412/165/300 411/164/300 413/163/300
f 420/160/301 421/143/301 419/156/301
f 418/157/302 417/155/302 424/154/302
f 415/152/303 423/150/303 273/151/303
f 423/150/304 416/147/304 395/148/304
f 416/147/305 422/145/305 397/146/305
f 410/142/204 427/140/204 399/141/204
f 400/139/306 406/137/306 407/167/306 401/166/306
f 407/167/307 402/128/307 401/166/307
f 407/167/308 403/136/308 425/133/308 428/129/308 402/128/308
f 407/167/309 406/137/309 403/136/309
f 401/166/204 402/128/204 271/168/204
f 271/168/204 402/128/204 396/125/204
f 425/133/310 389/130/310 428/129/310
f 429/126/311 408/127/311 388/14/311 430/15/311
f 430/15/312 272/13/312 396/125/312 429/126/312
f 286/169/313 432/171/313 435/170/313
f 432/171/314 434/172/314 435/170/314
f 432/171/315 433/173/315 434/172/315
f 432/171/316 431/174/316 433/173/316
f 431/174/316 268/175/316 433/173/316
f 445/54/317 442/176/317 436/53/317
f 442/176/318 443/178/318 437/177/318 436/53/318
f 443/178/319 440/179/319 437/177/319 444/178/319
f 440/179/320 442/176/320 441/181/320 435/170/320 439/180/320 437/177/320
f 441/181/321 286/169/321 435/170/321
f 286/169/322 446/182/322 445/54/322 265/52/322
f 446/182/323 441/181/323 442/176/323 445/54/323
f 446/182/324 286/169/324 441/181/324
f 435/170/325 434/172/325 438/183/325
f 434/172/326 433/173/326 268/175/326 266/184/326 438/183/326
f 266/184/327 439/180/327 438/183/327
f 266/184/328 437/177/328 439/180/328
f 438/183/329 439/180/329 435/170/329
f 443/178/330 442/176/330 440/179/330
f 454/30/204 453/185/204 447/29/204
f 453/185/204 455/186/204 447/29/204
f 455/186/204 456/187/204 447/29/204
f 456/187/204 284/188/204 447/29/204
f 284/188/331 456/187/331 455/186/331 452/191/331 451/190/331 267/189/331
f 452/191/332 450/192/332 451/190/332
f 450/192/333 285/193/333 451/190/333
f 450/192/334 452/191/334 448/194/334
f 448/194/335 285/193/335 450/192/335
f 285/193/336 449/195/336 283/28/336
f 449/195/337 454/30/337 283/28/337
f 449/195/338 448/194/338 453/185/338 454/30/338
f 449/195/339 285/193/339 448/194/339
f 285/193/340 267/189/340 451/190/340
f 448/194/341 452/191/341 455/186/341 453/185/341
f 465/12/342 466/198/342 467/197/342 458/196/342 457/11/342
f 466/198/343 476/200/343 477/199/343 467/197/343
f 476/200/344 479/202/344 478/201/344 477/199/344
f 479/202/345 474/203/345 478/201/345
f 474/203/346 463/206/346 470/205/346 469/204/346 478/201/346
f 470/205/347 481/207/347 469/204/347
f 481/207/348 468/208/348 469/204/348
f 481/207/349 470/205/349 462/209/349
f 481/207/350 462/209/350 483/210/350
f 462/209/351 470/205/351 463/206/351
f 463/206/204 471/212/204 280/211/204
f 471/212/352 472/213/352 280/211/352
f 472/213/353 464/214/353 280/211/353
f 464/214/354 465/12/354 281/10/354
f 464/214/355 472/213/355 465/12/355
f 472/213/356 471/212/356 480/216/356 475/215/356
f 480/216/357 474/203/357 479/202/357 475/215/357
f 480/216/358 463/206/358 474/203/358
f 480/216/359 471/212/359 463/206/359
f 475/215/360 473/217/360 472/213/360
f 473/217/361 476/200/361 466/198/361 465/12/361 472/213/361
f 475/215/362 479/202/362 476/200/362 473/217/362
f 462/209/363 461/218/363 483/210/363
f 461/218/363 279/42/363 483/210/363
f 279/42/364 459/43/364 485/219/364
f 459/43/365 484/220/365 485/219/365
f 484/220/366 482/221/366 483/210/366 485/219/366
f 482/221/367 481/207/367 483/210/367
f 482/221/368 468/208/368 481/207/368
f 468/208/369 460/44/369 282/45/369 458/196/369 467/197/369 469/204/369
f 460/44/370 484/220/370 459/43/370
f 460/44/371 482/221/371 484/220/371
f 460/44/372 468/208/372 482/221/372
f 485/219/373 483/210/373 279/42/373
f 469/204/374 477/199/374 478/201/374
f 469/204/375 467/197/375 477/199/375
f 436/53/376 437/177/376 514/177/376 258/53/376
f 267/189/377 285/193/377 236/193/377 487/189/377
f 291/57/378 292/58/378 496/58/378 240/57/378
f 432/171/377 286/169/377 237/169/377 257/171/377
f 292/58/376 293/56/376 241/56/376 496/58/376
f 279/42/377 461/218/377 262/218/377 232/42/377
f 314/64/377 289/65/377 494/65/377 245/64/377
f 293/56/379 294/1/379 242/1/379 241/56/379
f 461/218/377 462/209/377 516/209/377 262/218/377
f 315/63/377 314/64/377 245/64/377 246/63/377
f 319/72/380 274/27/380 489/27/380 248/72/380
f 299/24/379 300/70/379 498/70/379 497/24/379
f 462/209/377 463/206/377 263/206/377 516/209/377
f 316/71/377 315/63/377 246/63/377 502/71/377
f 275/48/376 291/57/376 240/57/376 230/48/376
f 276/2/379 277/47/379 490/47/379 231/2/379
f 280/211/378 464/214/378 517/214/378 233/211/378
f 290/31/381 317/76/381 247/76/381 495/31/381
f 278/46/377 299/24/377 497/24/377 491/46/377
f 305/5/382 366/6/382 250/6/382 500/5/382
f 272/13/376 388/14/376 505/14/376 228/13/376
f 317/76/383 318/77/383 503/77/383 247/76/383
f 388/14/376 389/130/376 506/130/376 505/14/376
f 318/77/384 319/72/384 248/72/384 503/77/384
f 389/130/376 390/131/376 251/131/376 506/130/376
f 264/89/378 279/42/378 232/42/378 486/89/378
f 266/184/379 268/175/379 225/175/379 224/184/379
f 330/81/385 366/6/385 250/6/385 504/81/385
f 390/131/376 391/161/376 507/161/376 251/131/376
f 284/188/379 267/189/379 487/189/379 493/188/379
f 391/161/376 392/158/376 508/158/376 507/161/376
f 437/177/386 443/178/386 259/178/386 514/177/386
f 401/166/377 271/168/377 488/168/377 255/166/377
f 274/27/387 275/48/387 230/48/387 489/27/387
f 392/158/376 393/159/376 252/159/376 508/158/376
f 286/169/378 265/52/378 223/52/378 237/169/378
f 270/51/378 302/23/378 243/23/378 227/51/378
f 393/159/376 394/153/376 253/153/376 252/159/376
f 328/17/388 264/89/388 486/89/388 249/17/388
f 294/1/377 276/2/377 231/2/377 242/1/377
f 395/148/379 288/149/379 239/149/379 509/148/379
f 285/193/378 283/28/378 235/28/378 236/193/378
f 304/16/388 328/17/388 249/17/388 244/16/388
f 271/168/378 396/125/378 510/125/378 488/168/378
f 287/21/388 304/16/388 244/16/388 238/21/388
f 437/177/376 266/184/376 224/184/376 514/177/376
f 288/149/377 397/146/377 511/146/377 239/149/377
f 268/175/377 431/174/377 256/174/377 225/175/377
f 282/45/379 269/35/379 226/35/379 492/45/379
f 463/206/377 280/211/377 233/211/377 263/206/377
f 303/107/377 270/51/377 227/51/377 499/107/377
f 397/146/377 398/144/377 512/144/377 511/146/377
f 443/178/193 444/178/193 259/178/193
f 431/174/377 432/171/377 257/171/377 256/174/377
f 302/23/378 287/21/378 238/21/378 243/23/378
f 398/144/377 399/141/377 513/141/377 512/144/377
f 444/178/389 437/177/389 514/177/389 259/178/389
f 273/151/390 395/148/390 509/148/390 229/151/390
f 394/153/391 273/151/391 229/151/391 253/153/391
f 396/125/378 272/13/378 228/13/378 510/125/378
f 399/141/377 400/139/377 254/139/377 513/141/377
f 283/28/376 447/29/376 260/29/376 235/28/376
f 400/139/377 401/166/377 255/166/377 254/139/377
f 289/65/378 306/66/378 501/66/378 494/65/378
f 277/47/377 278/46/377 491/46/377 490/47/377
f 269/35/377 303/107/377 499/107/377 226/35/377
f 300/70/377 316/71/377 502/71/377 498/70/377
f 464/214/378 281/10/378 234/10/378 517/214/378
f 458/196/376 282/45/376 492/45/376 261/196/376
f 281/10/376 457/11/376 515/11/376 234/10/376
f 447/29/376 284/188/376 493/188/376 260/29/376
f 457/11/376 458/196/376 261/196/376 515/11/376
f 265/52/376 436/53/376 258/53/376 223/52/376
f 306/66/378 290/31/378 495/31/378 501/66/378
f 331/36/392 329/83/392 330/81/392 366/6/392 371/7/392 370/104/392 367/105/392
f 66/89/393 68/89/393 104/89/393 107/89/393 108/89/393 90/89/393 250/89/393 366/89/393 67/89/393
